# xmcd
#
# Track frame offsets:
#	150
#	17102
#	38426
#	52315
#	71576
#	91119
#	107376
#	130992
#	149241
#	168717
#	184982
#	206187
#	222123
#	243429
#	265383
#	289409
#	307625
#	330964
#
# Disc length: 4752 seconds
#
# Revision: 0
# Processed by: cddbd v1.4PL0 Copyright (c) Steve Scherf et al.
# Submitted via: EasyCDDAExtractor 4.6.9.1
#
DISCID=12128e12
DTITLE=Various Artist - RNB Spirit
DYEAR=2004
DGENRE=R&B
TTITLE0=J. Lo - I'm Glad
TTITLE1=I Will Be There
TTITLE2=Ignition (Remix)
TTITLE3=Jealous
TTITLE4=If You're Not The One
TTITLE5=It's Okay
TTITLE6=Let Me Be The One
TTITLE7=Flexin
TTITLE8=All Night Long
TTITLE9=Get Busy
TTITLE10=Mesmerize
TTITLE11=In Da Club (Remix)
TTITLE12=Go To Sleep
TTITLE13=Laundromat
TTITLE14=Home
TTITLE15=Miss You
TTITLE16=Bump X3
TTITLE17=Sing For The Moment
EXTD=
EXTT0=
EXTT1=
EXTT2=
EXTT3=
EXTT4=
EXTT5=
EXTT6=
EXTT7=
EXTT8=
EXTT9=
EXTT10=
EXTT11=
EXTT12=
EXTT13=
EXTT14=
EXTT15=
EXTT16=
EXTT17=
PLAYORDER=
